<?xml version="1.0" encoding="utf-8"?>
<!-- Generator: Adobe Illustrator 25.1.0, SVG Export Plug-In . SVG Version: 6.00 Build 0)  -->
<svg version="1.1" id="Layer_1" xmlns="http://www.w3.org/2000/svg" xmlns:xlink="http://www.w3.org/1999/xlink" x="0px" y="0px"
	 viewBox="0 0 173 150" style="enable-background:new 0 0 173 150;" xml:space="preserve">
<style type="text/css">
	.st0{fill:#F4F4F4;}
</style>
<path class="st0" d="M18.3,14.4L0,3.8V5l17.3,10v20L0,45v1.2l18.3-10.6V14.4z M14.5,16.6L0,8.2v1.2l13.5,7.8v15.6L0,40.6v1.2
	l14.5-8.4V16.6z M10.7,18.8L0,12.6v1.2l9.7,5.6v11.2L0,36.2v1.2l10.7-6.2V18.8z M6.9,21L0,17v1.2l5.9,3.4v6.8L0,31.8V33l6.9-4V21z
	 M3.1,23.2L0,21.4v1.2l2.1,1.2v2.4L0,27.4v1.2l3.1-1.8V23.2z M18.3,89.4L0,78.8V80l17.3,10v20L0,120v1.2l18.3-10.6V89.4z M14.5,91.6
	L0,83.2v1.2l13.5,7.8l0,15.6L0,115.6v1.2l14.5-8.4V91.6z M10.7,93.8L0,87.6v1.2l9.7,5.6v11.2L0,111.2v1.2l10.7-6.2V93.8z M6.9,96
	L0,92v1.2l5.9,3.4v6.8L0,106.8v1.2l6.9-4V96z M3.1,98.2L0,96.4v1.2l2.1,1.2v2.4L0,102.4v1.2l3.1-1.8V98.2z M24.9,89.4v21.2
	l18.3,10.6l18.3-10.6V89.4L43.2,78.8L24.9,89.4z M60.6,110l-17.3,10l-17.3-10V90l17.3-10l17.3,10V110z M28.7,91.6v16.8l14.5,8.4
	l14.5-8.4V91.6l-14.5-8.4L28.7,91.6z M56.8,92.2v15.6l-13.5,7.8l-13.5-7.8V92.2l13.5-7.8L56.8,92.2z M54,106.2V93.8l-10.7-6.2
	l-10.7,6.2v12.4l10.7,6.2L54,106.2z M33.5,105.6V94.4l9.7-5.6l9.7,5.6v11.2l-9.7,5.6L33.5,105.6z M36.3,96v8l6.9,4l6.9-4v-8l-6.9-4
	L36.3,96z M49.2,103.4l-5.9,3.4l-5.9-3.4v-6.8l5.9-3.4l5.9,3.4V103.4z M40.1,98.2v3.6l3.1,1.8l3.1-1.8v-3.6l-3.1-1.8L40.1,98.2z
	 M45.4,101.2l-2.1,1.2l-2.1-1.2v-2.4l2.1-1.2l2.1,1.2V101.2z M68.2,89.4v21.2l18.3,10.6l18.3-10.6V89.4L86.5,78.8L68.2,89.4z
	 M103.8,110l-17.3,10l-17.3-10V90l17.3-10l17.3,10V110z M72,91.6v16.8l14.5,8.4l14.5-8.4V91.6l-14.5-8.4L72,91.6z M100,107.8
	l-13.5,7.8L73,107.8V92.2l13.5-7.8l13.5,7.8L100,107.8z M75.8,93.8v12.4l10.7,6.2l10.7-6.2V93.8l-10.7-6.2L75.8,93.8z M96.2,105.6
	l-9.7,5.6l-9.7-5.6V94.4l9.7-5.6l9.7,5.6V105.6z M79.6,96v8l6.9,4l6.9-4v-8l-6.9-4L79.6,96z M92.4,103.4l-5.9,3.4l-5.9-3.4v-6.8
	l5.9-3.4l5.9,3.4V103.4z M83.4,98.2v3.6l3.1,1.8l3.1-1.8v-3.6l-3.1-1.8L83.4,98.2z M88.6,101.2l-2.1,1.2l-2.1-1.2v-2.4l2.1-1.2
	l2.1,1.2V101.2z M111.4,89.4v21.2l18.3,10.6l18.3-10.6V89.4l-18.3-10.6L111.4,89.4z M147.1,110l-17.3,10l-17.3-10V90l17.3-10
	l17.3,10V110z M115.2,91.6v16.8l14.5,8.4l14.5-8.4V91.6l-14.5-8.4L115.2,91.6z M143.3,107.8l-13.5,7.8l-13.5-7.8V92.2l13.5-7.8
	l13.5,7.8L143.3,107.8z M119,93.8v12.4l10.7,6.2l10.7-6.2V93.8l-10.7-6.2L119,93.8z M139.5,105.6l-9.7,5.6l-9.7-5.6V94.4l9.7-5.6
	l9.7,5.6V105.6z M122.8,96v8l6.9,4l6.9-4v-8l-6.9-4L122.8,96z M135.7,103.4l-5.9,3.4l-5.9-3.4v-6.8l5.9-3.4l5.9,3.4L135.7,103.4z
	 M126.6,98.2v3.6l3.1,1.8l3.1-1.8v-3.6l-3.1-1.8L126.6,98.2z M131.9,101.2l-2.1,1.2l-2.1-1.2v-2.4l2.1-1.2l2.1,1.2V101.2z
	 M154.7,110.6l18.3,10.6V120l-17.3-10V90L173,80v-1.2l-18.3,10.6V110.6z M158.5,108.4l14.5,8.4v-1.2l-13.5-7.8V92.2l13.5-7.8v-1.2
	l-14.5,8.4V108.4z M162.3,106.2l10.7,6.2v-1.2l-9.7-5.6V94.4l9.7-5.6v-1.2l-10.7,6.2V106.2z M166.1,104l6.9,4v-1.2l-5.9-3.4v-6.8
	l5.9-3.4V92l-6.9,4V104z M169.9,101.8l3.1,1.8v-1.2l-2.1-1.2v-2.4l2.1-1.2v-1.2l-3.1,1.8V101.8z M61.6,35.6V14.4L43.2,3.8L24.9,14.4
	v21.2l18.3,10.6L61.6,35.6z M25.9,15L43.2,5l17.3,10v20L43.3,45L25.9,35V15z M57.8,16.6L43.2,8.2l-14.5,8.4v16.8l14.5,8.4l14.5-8.4
	V16.6z M56.8,32.8l-13.5,7.8l-13.5-7.8V17.2l13.5-7.8l13.5,7.8V32.8z M32.5,18.8v12.4l10.7,6.2L54,31.2V18.8l-10.7-6.2L32.5,18.8z
	 M53,30.6l-9.7,5.6l-9.7-5.6V19.4l9.7-5.6l9.7,5.6V30.6z M36.3,21v8l6.9,4l6.9-4v-8l-6.9-4L36.3,21z M49.2,28.4l-5.9,3.4l-5.9-3.4
	v-6.8l5.9-3.4l5.9,3.4V28.4z M40.1,23.2v3.6l3.1,1.8l3.1-1.8v-3.6l-3.1-1.8L40.1,23.2z M45.4,26.2l-2.1,1.2l-2.1-1.2v-2.4l2.1-1.2
	l2.1,1.2V26.2z M104.8,35.6V14.4L86.5,3.8L68.2,14.4v21.2l18.3,10.6L104.8,35.6z M69.2,15L86.5,5l17.3,10v20L86.5,45L69.2,35V15z
	 M101,33.4V16.6L86.5,8.2L72,16.6v16.8l14.5,8.4L101,33.4z M73,17.2l13.5-7.8l13.5,7.8l0,15.6l-13.5,7.8L73,32.8V17.2z M97.2,31.2
	V18.8l-10.7-6.2l-10.7,6.2v12.4l10.7,6.2L97.2,31.2z M76.8,19.4l9.7-5.6l9.7,5.6v11.2l-9.7,5.6l-9.7-5.6V19.4z M93.4,29v-8l-6.9-4
	l-6.9,4v8l6.9,4L93.4,29z M80.6,21.6l5.9-3.4l5.9,3.4v6.8l-5.9,3.4l-5.9-3.4V21.6z M89.6,26.8v-3.6l-3.1-1.8l-3.1,1.8v3.6l3.1,1.8
	L89.6,26.8z M84.4,23.8l2.1-1.2l2.1,1.2v2.4l-2.1,1.2l-2.1-1.2V23.8z M148.1,35.6V14.4L129.8,3.8l-18.3,10.6v21.2l18.3,10.6
	L148.1,35.6z M112.4,15l17.3-10l17.3,10v20l-17.3,10l-17.3-10V15z M144.3,33.4V16.6l-14.5-8.4l-14.5,8.4v16.8l14.5,8.4L144.3,33.4z
	 M116.2,17.2l13.5-7.8l13.5,7.8l0,15.6l-13.5,7.8l-13.5-7.8V17.2z M140.5,31.2V18.8l-10.7-6.2L119,18.8v12.4l10.7,6.2L140.5,31.2z
	 M120,19.4l9.7-5.6l9.7,5.6v11.2l-9.7,5.6l-9.7-5.6V19.4z M136.7,29v-8l-6.9-4l-6.9,4v8l6.9,4L136.7,29z M123.8,21.6l5.9-3.4
	l5.9,3.4v6.8l-5.9,3.4l-5.9-3.4V21.6z M132.9,26.8v-3.6l-3.1-1.8l-3.1,1.8v3.6l3.1,1.8L132.9,26.8z M127.6,23.8l2.1-1.2l2.1,1.2v2.4
	l-2.1,1.2l-2.1-1.2V23.8z M154.7,35.6L173,46.2V45l-17.3-10V15L173,5V3.8l-18.3,10.6V35.6z M158.5,33.4l14.5,8.4v-1.2l-13.5-7.8
	V17.2L173,9.4V8.2l-14.5,8.4V33.4z M162.3,31.2l10.7,6.2v-1.2l-9.7-5.6V19.4l9.7-5.6v-1.2l-10.7,6.2V31.2z M166.1,29l6.9,4v-1.2
	l-5.9-3.4v-6.8l5.9-3.4V17l-6.9,4V29z M169.9,26.8l3.1,1.8v-1.2l-2.1-1.2v-2.4l2.1-1.2v-1.2l-3.1,1.8V26.8z M36.6,0h-2l-13,7.5
	L8.6,0h-2l15,8.7L36.6,0z M29,0h-2l-5.4,3.1L16.2,0h-2l7.4,4.3L29,0z M79.9,0h-2l-13,7.5L51.9,0h-2l15,8.7L79.9,0z M72.3,0h-2
	l-5.4,3.1L59.5,0h-2l7.4,4.3L72.3,0z M123.1,0h-2l-13,7.5L95.1,0h-2l15,8.7L123.1,0z M115.5,0h-2l-5.4,3.1L102.7,0h-2l7.4,4.3
	L115.5,0z M172,0l-20.6,11.9L130.8,0h-2.1l-20.6,11.9L87.5,0h-2.1L64.9,11.9L44.3,0h-2.1L21.6,11.9L1,0H0v0.6l21.1,12.2v24.4
	L16.3,40L0,49.4v26.2l21.1,12.2v24.4l-4.8,2.8L0,124.4V150h1l-0.5-0.3v-24.4l5.3-3.1l15.8-9.2l7.7,4.5l13.4,7.7v24.4l-0.5,0.3h2
	l-0.5-0.3v-24.4l13.4-7.7l7.7-4.5l7.7,4.5l13.4,7.7v24.4l-0.5,0.3h2l-0.5-0.3v-24.4l21.1-12.2l21.1,12.2l0,24.4l-0.5,0.3h2l-0.5-0.3
	v-24.4l10.6-6.1l10.6-6.1l21.1,12.2v24.4L172,150h1v-25.6l-21.1-12.2V87.8L173,75.6V49.4l-21.1-12.2V12.8L173,0.6V0H172z
	 M108.6,12.8l21.1-12.2L148,11.1l2.9,1.7l0,24.4l-21.1,12.2l-21.1-12.2V12.8z M65.4,12.8L86.5,0.6l18.2,10.5l2.9,1.7l0,24.4
	L86.5,49.4L65.4,37.2V12.8z M22.1,12.8L28.7,9l14.6-8.4l10.6,6.1l10.6,6.1v24.4l-9.8,5.7l-11.3,6.6l-2.9-1.7L22.1,37.2V12.8z
	 M0.5,74.7V50.3l10.6-6.1l10.6-6.1l21.1,12.2v24.4L21.6,86.9L0.5,74.7z M64.4,112.2l-9.8,5.7l-11.3,6.6l-2.9-1.7l-18.2-10.5V87.8
	l21.1-12.2l21.1,12.2V112.2z M64.9,86.9L43.8,74.7V50.3l10.6-6.1l10.6-6.1L86,50.3v24.4L64.9,86.9z M97.8,117.9l-11.3,6.6
	l-21.1-12.2V87.8l21.1-12.2l21.1,12.2l0,24.4L97.8,117.9z M87,74.7V50.3l21.1-12.2h0h0l0,0l21.1,12.2l0,24.4l-21.1,12.2L87,74.7z
	 M141.1,117.9l-11.3,6.6l-21.1-12.2V87.8l21.1-12.2l21.1,12.2l0,24.4L141.1,117.9z M156.7,41.1l15.8,9.2v24.4l-21.1,12.2l-21.1-12.2
	V50.3l10.6-6.1l10.6-6.1L156.7,41.1z M166.4,0h-2l-13,7.5l-13-7.5h-2l15,8.7L166.4,0z M158.8,0h-2l-5.4,3.1L146,0h-2l7.4,4.3
	L158.8,0z M3.3,51.9v21.2l18.3,10.6l18.3-10.6V51.9L21.6,41.3L3.3,51.9z M38.9,72.5l-17.3,10l-17.3-10v-20l17.3-10l17.3,10V72.5z
	 M7.1,54.1v16.8l14.5,8.4l14.5-8.4V54.1l-14.5-8.4L7.1,54.1z M35.1,54.7v15.6l-13.5,7.8L8.1,70.3V54.7l13.5-7.8L35.1,54.7z
	 M32.3,68.7V56.3l-10.7-6.2l-10.7,6.2v12.4l10.7,6.2L32.3,68.7z M11.9,56.9l9.7-5.6l9.7,5.6v11.2l-9.7,5.6l-9.7-5.6V56.9z
	 M28.5,58.5l-6.9-4l-6.9,4v8l6.9,4l6.9-4V58.5z M27.5,65.9l-5.9,3.4l-5.9-3.4v-6.8l5.9-3.4l5.9,3.4V65.9z M18.5,60.7v3.6l3.1,1.8
	l3.1-1.8v-3.6l-3.1-1.8L18.5,60.7z M23.7,61.3v2.4l-2.1,1.2l-2.1-1.2v-2.4l2.1-1.2L23.7,61.3z M3.3,126.9v21.2l3.3,1.9h2l-4.3-2.5
	v-20l17.3-10l17.3,10v20l-4.3,2.5h2l3.3-1.9v-21.2l-18.3-10.6L3.3,126.9z M36.1,129.1l-14.5-8.4l-14.5,8.4v16.8l7.1,4.1h2l-8.1-4.7
	v-15.6l13.5-7.8l13.5,7.8v15.6L27,150h2l7.1-4.1V129.1z M32.3,131.3l-10.7-6.2l-10.7,6.2v12.4l10.7,6.2l10.7-6.2V131.3z M31.3,143.1
	l-9.7,5.6l-9.7-5.6v-11.2l9.7-5.6l9.7,5.6V143.1z M14.7,133.5v8l6.9,4l6.9-4v-8l-6.9-4L14.7,133.5z M27.5,134.1v6.8l-5.9,3.4
	l-5.9-3.4v-6.8l5.9-3.4L27.5,134.1z M24.7,139.3v-3.6l-3.1-1.8l-3.1,1.8v3.6l3.1,1.8L24.7,139.3z M19.5,136.3l2.1-1.2l2.1,1.2v2.4
	l-2.1,1.2l-2.1-1.2V136.3z M89.8,126.9v21.2l3.3,1.9h2l-4.3-2.5v-20l17.3-10l17.3,10v20l-4.3,2.5h2l3.3-1.9v-21.2l-18.3-10.6
	L89.8,126.9z M122.6,129.1l-14.5-8.4l-14.5,8.4v16.8l7.1,4.1h2l-8.1-4.7v-15.6l13.5-7.8l13.5,7.8l0,15.6l-8.1,4.7h2l7.1-4.1V129.1z
	 M118.8,131.3l-10.7-6.2l-10.7,6.2v12.4l10.7,6.2l10.7-6.2V131.3z M117.8,143.1l-9.7,5.6l-9.7-5.6v-11.2l9.7-5.6l9.7,5.6V143.1z
	 M101.2,133.5v8l6.9,4l6.9-4v-8l-6.9-4L101.2,133.5z M114,140.9l-5.9,3.4l-5.9-3.4v-6.8l5.9-3.4l5.9,3.4L114,140.9z M105,135.7v3.6
	l3.1,1.8l3.1-1.8v-3.6l-3.1-1.8L105,135.7z M110.2,138.7l-2.1,1.2l-2.1-1.2v-2.4l2.1-1.2l2.1,1.2V138.7z M133.1,126.9v21.2l3.3,1.9
	h2l-4.3-2.5v-20l17.3-10l17.3,10v20l-4.3,2.5h2l3.3-1.9v-21.2l-18.3-10.6L133.1,126.9z M165.9,129.1l-14.5-8.4l-14.5,8.4v16.8
	l7.1,4.1h2l-8.1-4.7v-15.6l13.5-7.8l13.5,7.8v15.6l-8.1,4.7h2l7.1-4.1V129.1z M162.1,131.3l-10.7-6.2l-10.7,6.2v12.4l10.7,6.2
	l10.7-6.2V131.3z M161.1,143.1l-9.7,5.6l-9.7-5.6v-11.2l9.7-5.6l9.7,5.6V143.1z M144.5,133.5v8l6.9,4l6.9-4v-8l-6.9-4L144.5,133.5z
	 M157.3,140.9l-5.9,3.4l-5.9-3.4v-6.8l5.9-3.4l5.9,3.4V140.9z M148.3,135.7v3.6l3.1,1.8l3.1-1.8v-3.6l-3.1-1.8L148.3,135.7z
	 M153.5,138.7l-2.1,1.2l-2.1-1.2v-2.4l2.1-1.2l2.1,1.2V138.7z M46.6,126.9v21.2l3.3,1.9h2l-4.3-2.5v-20l17.3-10l17.3,10v20l-4.3,2.5
	h2l3.3-1.9v-21.2l-18.3-10.6L46.6,126.9z M79.4,129.1l-14.5-8.4l-14.5,8.4v16.8l7.1,4.1h2l-8.1-4.7v-15.6l13.5-7.8l13.5,7.8v15.6
	l-8.1,4.7h2l7.1-4.1V129.1z M75.6,131.3l-10.7-6.2l-10.7,6.2v12.4l10.7,6.2l10.7-6.2V131.3z M74.6,143.1l-9.7,5.6l-9.7-5.6v-11.2
	l9.7-5.6l9.7,5.6V143.1z M58,133.5v8l6.9,4l6.9-4v-8l-6.9-4L58,133.5z M70.8,140.9l-5.9,3.4l-5.9-3.4v-6.8l5.9-3.4l5.9,3.4V140.9z
	 M61.8,135.7v3.6l3.1,1.8l3.1-1.8v-3.6l-3.1-1.8L61.8,135.7z M67,138.7l-2.1,1.2l-2.1-1.2v-2.4l2.1-1.2l2.1,1.2V138.7z M46.6,51.9
	v21.2l18.3,10.6l18.3-10.6V51.9L64.9,41.3L46.6,51.9z M82.2,72.5l-17.3,10l-17.3-10v-20l17.3-10l17.3,10V72.5z M50.4,54.1v16.8
	l14.5,8.4l14.5-8.4V54.1l-14.5-8.4L50.4,54.1z M78.4,70.3l-13.5,7.8l-13.5-7.8V54.7l13.5-7.8l13.5,7.8V70.3z M54.2,56.3v12.4
	l10.7,6.2l10.7-6.2V56.3l-10.7-6.2L54.2,56.3z M74.6,68.1l-9.7,5.6l-9.7-5.6V56.9l9.7-5.6l9.7,5.6V68.1z M58,58.5v8l6.9,4l6.9-4v-8
	l-6.9-4L58,58.5z M70.8,65.9l-5.9,3.4L59,65.9v-6.8l5.9-3.4l5.9,3.4V65.9z M61.8,60.7v3.6l3.1,1.8l3.1-1.8v-3.6l-3.1-1.8L61.8,60.7z
	 M67,63.7l-2.1,1.2l-2.1-1.2v-2.4l2.1-1.2l2.1,1.2V63.7z M89.8,51.9v21.2l18.3,10.6l18.3-10.6V51.9l-18.3-10.6L89.8,51.9z
	 M125.4,72.5l-17.3,10l-17.3-10v-20l17.3-10l17.3,10V72.5z M93.6,54.1v16.8l14.5,8.4l14.5-8.4V54.1l-14.5-8.4L93.6,54.1z
	 M121.6,70.3l-13.5,7.8l-13.5-7.8V54.7l13.5-7.8l13.5,7.8V70.3z M97.4,56.3v12.4l10.7,6.2l10.7-6.2V56.3l-10.7-6.2L97.4,56.3z
	 M117.8,68.1l-9.7,5.6l-9.7-5.6V56.9l9.7-5.6l9.7,5.6V68.1z M101.2,58.5v8l6.9,4l6.9-4v-8l-6.9-4L101.2,58.5z M114,65.9l-5.9,3.4
	l-5.9-3.4v-6.8l5.9-3.4l5.9,3.4L114,65.9z M105,60.7v3.6l3.1,1.8l3.1-1.8v-3.6l-3.1-1.8L105,60.7z M110.2,63.7l-2.1,1.2l-2.1-1.2
	v-2.4l2.1-1.2l2.1,1.2V63.7z M133.1,51.9v21.2l18.3,10.6l18.3-10.6V51.9l-18.3-10.6L133.1,51.9z M168.7,72.5l-17.3,10l-17.3-10v-20
	l17.3-10l17.3,10V72.5z M136.9,54.1v16.8l14.5,8.4l14.5-8.4V54.1l-14.5-8.4L136.9,54.1z M164.9,70.3l-13.5,7.8l-13.5-7.8V54.7
	l13.5-7.8l13.5,7.8V70.3z M140.7,56.3v12.4l10.7,6.2l10.7-6.2V56.3l-10.7-6.2L140.7,56.3z M161.1,68.1l-9.7,5.6l-9.7-5.6V56.9
	l9.7-5.6l9.7,5.6V68.1z M144.5,58.5v8l6.9,4l6.9-4v-8l-6.9-4L144.5,58.5z M157.3,65.9l-5.9,3.4l-5.9-3.4v-6.8l5.9-3.4l5.9,3.4V65.9z
	 M148.3,60.7v3.6l3.1,1.8l3.1-1.8v-3.6l-3.1-1.8L148.3,60.7z M153.5,63.7l-2.1,1.2l-2.1-1.2v-2.4l2.1-1.2l2.1,1.2V63.7z"/>
</svg>
