<?xml version="1.0" encoding="utf-8"?>
<!-- Generator: Adobe Illustrator 24.0.3, SVG Export Plug-In . SVG Version: 6.00 Build 0)  -->
<svg version="1.1" id="Layer_1" xmlns="http://www.w3.org/2000/svg" xmlns:xlink="http://www.w3.org/1999/xlink" x="0px" y="0px"
	 viewBox="0 0 350 43" style="enable-background:new 0 0 350 43;" xml:space="preserve">
<style type="text/css">
	.st0{fill:#EA0769;}
</style>
<path class="st0" d="M0.5,15.3h2l3.4,11.6H6l3.9-11.6h1.7l4.1,11.6h0.1l3.3-11.6h1.8l-4.1,13.9h-1.9l-4.1-11.3h-0.1l-4,11.2H4.8
	L0.5,15.3z"/>
<path class="st0" d="M35.8,26.5c-0.7,1.1-1.6,1.8-2.6,2.3s-2.2,0.7-3.4,0.7c-1.1,0-2-0.2-2.9-0.5c-0.9-0.4-1.6-0.9-2.2-1.5
	s-1.1-1.4-1.4-2.3s-0.5-1.9-0.5-3c0-1,0.2-2,0.5-2.9s0.8-1.6,1.4-2.3c0.6-0.6,1.4-1.2,2.2-1.5c0.8-0.4,1.8-0.6,2.8-0.6
	c1.1,0,2,0.2,2.8,0.6c0.8,0.4,1.5,0.9,2,1.5s1,1.3,1.2,2.1s0.4,1.6,0.4,2.4v1.3H24.6c0,0.4,0.1,0.9,0.2,1.5c0.2,0.6,0.4,1.2,0.8,1.7
	c0.4,0.6,0.9,1,1.6,1.4s1.5,0.6,2.6,0.6c0.9,0,1.8-0.2,2.7-0.7c0.9-0.4,1.5-1,2-1.8L35.8,26.5z M34.4,21c0-0.6-0.1-1.2-0.4-1.7
	c-0.3-0.5-0.6-1-1-1.4s-0.9-0.7-1.5-1c-0.6-0.2-1.2-0.4-1.9-0.4c-1,0-1.8,0.2-2.4,0.6c-0.7,0.4-1.2,0.9-1.5,1.4
	c-0.4,0.5-0.7,1-0.8,1.5s-0.2,0.8-0.2,1H34.4z"/>
<path class="st0" d="M39.8,6.4h1.8v11.3h0.1c0.3-0.5,0.6-0.9,1.1-1.2c0.4-0.3,0.9-0.6,1.4-0.9c0.5-0.2,1-0.4,1.5-0.5
	s1.1-0.2,1.6-0.2c1.1,0,2,0.2,2.9,0.5c0.9,0.4,1.7,0.9,2.3,1.5c0.6,0.7,1.2,1.4,1.5,2.3c0.4,0.9,0.5,1.9,0.5,2.9
	c0,1.1-0.2,2-0.5,2.9c-0.4,0.9-0.9,1.7-1.5,2.3c-0.7,0.7-1.4,1.2-2.3,1.5c-0.9,0.4-1.9,0.5-2.9,0.5c-0.5,0-1.1-0.1-1.6-0.2
	s-1.1-0.3-1.5-0.5c-0.5-0.2-0.9-0.5-1.4-0.9c-0.4-0.3-0.8-0.8-1.1-1.2h-0.1v2.4h-1.8V6.4z M41.5,22.2c0,0.8,0.1,1.5,0.5,2.2
	c0.3,0.7,0.7,1.3,1.2,1.8s1.1,0.9,1.8,1.2c0.7,0.3,1.5,0.5,2.3,0.5s1.6-0.1,2.3-0.5c0.7-0.3,1.3-0.7,1.7-1.2
	c0.5-0.5,0.8-1.1,1.1-1.8s0.4-1.4,0.4-2.2c0-0.8-0.1-1.5-0.4-2.2c-0.2-0.7-0.6-1.3-1.1-1.8s-1.1-0.9-1.7-1.2
	c-0.7-0.3-1.4-0.5-2.3-0.5c-0.8,0-1.6,0.1-2.3,0.5c-0.7,0.3-1.3,0.7-1.8,1.2S42.3,19.3,42,20C41.6,20.7,41.5,21.4,41.5,22.2z"/>
<path class="st0" d="M77.9,26.7L77.9,26.7c-0.3,0.5-0.7,0.9-1.1,1.2c-0.4,0.4-0.9,0.6-1.4,0.9c-0.5,0.2-1,0.4-1.5,0.5
	s-1.1,0.2-1.6,0.2c-1.1,0-2-0.2-2.9-0.5c-0.9-0.4-1.7-0.9-2.3-1.5c-0.6-0.7-1.1-1.4-1.5-2.3s-0.5-1.9-0.5-2.9c0-1.1,0.2-2,0.5-2.9
	c0.4-0.9,0.9-1.7,1.5-2.3c0.6-0.6,1.4-1.2,2.3-1.5c0.9-0.4,1.9-0.5,2.9-0.5c0.5,0,1.1,0.1,1.6,0.2c0.5,0.1,1.1,0.3,1.5,0.5
	s0.9,0.5,1.4,0.9c0.4,0.4,0.8,0.8,1.1,1.2H78V6.4h1.8v22.7H78L77.9,26.7L77.9,26.7z M78.1,22.2c0-0.8-0.1-1.5-0.5-2.2
	c-0.3-0.7-0.7-1.3-1.2-1.8s-1.1-0.9-1.8-1.2c-0.7-0.3-1.5-0.5-2.3-0.5S70.7,16.6,70,17c-0.7,0.3-1.3,0.7-1.7,1.2s-0.8,1.1-1.1,1.8
	c-0.3,0.7-0.4,1.4-0.4,2.2c0,0.8,0.1,1.5,0.4,2.2c0.2,0.7,0.6,1.3,1.1,1.8s1.1,0.9,1.7,1.2c0.7,0.3,1.4,0.5,2.3,0.5
	c0.8,0,1.6-0.1,2.3-0.5c0.7-0.3,1.3-0.7,1.8-1.2s0.9-1.1,1.2-1.8C77.9,23.7,78.1,23,78.1,22.2z"/>
<path class="st0" d="M96.4,26.5c-0.7,1.1-1.6,1.8-2.6,2.3s-2.2,0.7-3.4,0.7c-1.1,0-2-0.2-2.9-0.5c-0.9-0.4-1.6-0.9-2.2-1.5
	s-1.1-1.4-1.4-2.3s-0.5-1.9-0.5-3c0-1,0.2-2,0.5-2.9s0.8-1.6,1.4-2.3c0.6-0.6,1.4-1.2,2.2-1.5c0.8-0.4,1.8-0.6,2.8-0.6
	c1.1,0,2,0.2,2.8,0.6c0.8,0.4,1.5,0.9,2,1.5s1,1.3,1.2,2.1s0.4,1.6,0.4,2.4v1.3H85.1c0,0.4,0.1,0.9,0.2,1.5c0.2,0.6,0.4,1.2,0.8,1.7
	c0.4,0.6,0.9,1,1.6,1.4s1.5,0.6,2.6,0.6c0.9,0,1.8-0.2,2.7-0.7c0.9-0.4,1.5-1,2-1.8L96.4,26.5z M95,21c0-0.6-0.1-1.2-0.4-1.7
	s-0.6-1-1-1.4s-0.9-0.7-1.5-1c-0.6-0.2-1.2-0.4-1.9-0.4c-1,0-1.8,0.2-2.4,0.6c-0.7,0.4-1.2,0.9-1.5,1.4c-0.4,0.5-0.7,1-0.8,1.5
	s-0.2,0.8-0.2,1H95z"/>
<path class="st0" d="M100.8,25.6c0.4,0.7,0.9,1.3,1.7,1.7c0.7,0.4,1.5,0.6,2.3,0.6c0.4,0,0.8-0.1,1.1-0.2s0.7-0.3,1-0.5
	s0.5-0.5,0.7-0.8s0.3-0.7,0.3-1.1c0-0.6-0.2-1.1-0.6-1.4s-0.9-0.6-1.5-0.8s-1.3-0.3-2-0.5s-1.4-0.3-2-0.6c-0.6-0.3-1.1-0.6-1.5-1.1
	s-0.6-1.2-0.6-2c0-0.7,0.1-1.3,0.4-1.8s0.6-0.9,1.1-1.2s1-0.6,1.5-0.7s1.1-0.2,1.7-0.2c1.1,0,2.1,0.2,3,0.6c0.8,0.4,1.5,1.1,1.9,2
	l-1.6,1c-0.3-0.6-0.8-1.1-1.3-1.5c-0.5-0.3-1.2-0.5-2-0.5c-0.3,0-0.7,0.1-1,0.1c-0.4,0.1-0.7,0.2-0.9,0.4c-0.3,0.2-0.5,0.4-0.7,0.7
	c-0.2,0.3-0.3,0.6-0.3,1c0,0.6,0.2,1.1,0.6,1.4s0.9,0.5,1.5,0.7s1.3,0.3,2,0.4s1.4,0.3,2,0.6c0.6,0.3,1.1,0.7,1.5,1.2
	s0.6,1.2,0.6,2.2c0,0.7-0.1,1.3-0.4,1.9c-0.3,0.5-0.6,1-1.1,1.3c-0.5,0.4-1,0.6-1.6,0.8c-0.6,0.2-1.2,0.3-1.9,0.3
	c-1.2,0-2.3-0.2-3.3-0.7s-1.8-1.2-2.3-2.1L100.8,25.6z"/>
<path class="st0" d="M113.4,9.8c0-0.4,0.1-0.7,0.4-1s0.6-0.4,1-0.4s0.7,0.1,1,0.4c0.3,0.3,0.4,0.6,0.4,1s-0.1,0.7-0.4,1
	s-0.6,0.4-1,0.4s-0.7-0.1-1-0.4C113.6,10.5,113.4,10.1,113.4,9.8z"/>
<rect x="113.9" y="15.3" class="st0" width="1.8" height="13.9"/>
<path class="st0" d="M134.7,28.2c0,1.7-0.3,3.1-0.8,4.2c-0.5,1.1-1.1,1.9-1.9,2.5c-0.8,0.6-1.6,1-2.4,1.2c-0.9,0.2-1.6,0.3-2.3,0.3
	s-1.4-0.1-2.1-0.2c-0.7-0.1-1.3-0.3-1.9-0.6s-1.1-0.6-1.6-0.9c-0.5-0.4-0.9-0.8-1.3-1.2l1.4-1.3c0.6,0.9,1.4,1.6,2.4,2
	s2,0.6,3.1,0.6c0.9,0,1.7-0.1,2.3-0.4c0.6-0.2,1.2-0.6,1.6-0.9c0.4-0.4,0.7-0.8,1-1.3c0.2-0.5,0.4-0.9,0.5-1.4s0.2-0.9,0.2-1.3
	s0-0.8,0-1v-1.9h-0.1c-0.5,0.8-1.2,1.5-2.1,2c-0.9,0.5-1.9,0.7-3.1,0.7c-1,0-2-0.2-2.9-0.6s-1.7-0.9-2.4-1.5
	c-0.7-0.6-1.2-1.4-1.6-2.3s-0.6-1.8-0.6-2.8s0.2-1.9,0.6-2.8s0.9-1.6,1.6-2.3c0.7-0.6,1.5-1.1,2.4-1.5s1.9-0.6,2.9-0.6
	c1.2,0,2.2,0.2,3.1,0.7c0.9,0.5,1.6,1.1,2.1,2h0.1v-2.3h1.8L134.7,28.2L134.7,28.2z M133,22c0-0.8-0.1-1.5-0.4-2.1s-0.7-1.3-1.2-1.7
	s-1.1-0.9-1.7-1.2c-0.7-0.3-1.4-0.4-2.1-0.4s-1.5,0.1-2.1,0.4c-0.7,0.3-1.3,0.7-1.7,1.2s-0.9,1.1-1.2,1.7S122,21.2,122,22
	s0.1,1.5,0.4,2.1c0.3,0.7,0.7,1.3,1.2,1.7s1.1,0.9,1.7,1.2c0.7,0.3,1.4,0.4,2.1,0.4s1.5-0.1,2.1-0.4c0.7-0.3,1.2-0.7,1.7-1.2
	s0.9-1.1,1.2-1.7C132.8,23.5,133,22.8,133,22z"/>
<path class="st0" d="M139.1,19.2c0-0.3,0-0.6,0-0.9c0-0.4,0-0.7,0-1.1s0-0.7,0-1.1c0-0.3,0-0.6,0-0.8h1.8c0,0.5,0,1,0,1.5
	s0,0.8,0.1,0.9h0.1c0.4-0.8,1-1.4,1.8-2c0.8-0.5,1.8-0.8,2.9-0.8c1.1,0,2,0.2,2.6,0.5c0.7,0.3,1.2,0.8,1.6,1.3s0.7,1.2,0.8,1.9
	c0.1,0.7,0.2,1.5,0.2,2.2v8.3h-1.8V21c0-0.6,0-1.1-0.1-1.6s-0.3-1-0.5-1.4s-0.6-0.8-1.1-1s-1-0.4-1.8-0.4c-0.7,0-1.3,0.1-1.9,0.3
	c-0.6,0.2-1.1,0.6-1.5,1.1s-0.8,1.1-1,1.8c-0.3,0.7-0.4,1.5-0.4,2.5v6.9h-1.8L139.1,19.2L139.1,19.2z"/>
<path class="st0" d="M168,26.5c-0.7,1.1-1.6,1.8-2.6,2.3s-2.2,0.7-3.4,0.7c-1.1,0-2-0.2-2.9-0.5c-0.9-0.4-1.6-0.9-2.2-1.5
	s-1.1-1.4-1.4-2.3c-0.3-0.9-0.5-1.9-0.5-3c0-1,0.2-2,0.5-2.9s0.8-1.6,1.4-2.3c0.6-0.6,1.4-1.2,2.2-1.5c0.8-0.4,1.8-0.6,2.8-0.6
	c1.1,0,2,0.2,2.8,0.6c0.8,0.4,1.5,0.9,2,1.5s1,1.3,1.2,2.1s0.4,1.6,0.4,2.4v1.3h-11.6c0,0.4,0.1,0.9,0.2,1.5
	c0.2,0.6,0.4,1.2,0.8,1.7c0.4,0.6,0.9,1,1.6,1.4c0.7,0.4,1.5,0.6,2.6,0.6c0.9,0,1.8-0.2,2.7-0.7c0.9-0.4,1.5-1,2-1.8L168,26.5z
	 M166.7,21c0-0.6-0.1-1.2-0.4-1.7c-0.3-0.5-0.6-1-1-1.4s-0.9-0.7-1.5-1c-0.6-0.2-1.2-0.4-1.9-0.4c-1,0-1.8,0.2-2.4,0.6
	c-0.7,0.4-1.2,0.9-1.5,1.4c-0.4,0.5-0.7,1-0.8,1.5s-0.2,0.8-0.2,1H166.7z"/>
<path class="st0" d="M172.5,19.2c0-0.3,0-0.6,0-0.9c0-0.4,0-0.7,0-1.1s0-0.7,0-1.1c0-0.3,0-0.6,0-0.8h1.8c0,0.5,0,1,0,1.5
	s0,0.8,0.1,0.9c0.5-0.8,1.1-1.5,1.8-2s1.6-0.8,2.6-0.8c0.2,0,0.4,0,0.5,0c0.2,0,0.3,0.1,0.5,0.1l-0.2,1.8c-0.2-0.1-0.5-0.1-0.7-0.1
	c-0.8,0-1.5,0.1-2,0.4c-0.6,0.3-1,0.6-1.4,1s-0.6,1-0.8,1.5c-0.2,0.6-0.3,1.2-0.3,1.9v7.6h-1.8v-9.9H172.5z"/>
<path class="st0" d="M201.9,22.9l3.1-5.5h2l-3.8,6.8l4.8,5.1h-2.7l-3.2-3.4c-0.9,1.2-1.8,2.1-2.8,2.8s-2.3,1-3.8,1
	c-0.9,0-1.7-0.1-2.5-0.4s-1.5-0.7-2.1-1.2s-1-1.2-1.4-2c-0.3-0.8-0.5-1.6-0.5-2.6c0-0.8,0.1-1.5,0.4-2.2c0.3-0.6,0.6-1.2,1.1-1.7
	s1-0.9,1.5-1.3c0.6-0.4,1.2-0.8,1.8-1.2c-0.3-0.4-0.6-0.7-0.9-1.1c-0.3-0.4-0.6-0.8-0.8-1.2s-0.4-0.9-0.6-1.3s-0.2-0.9-0.2-1.4
	c0-0.8,0.1-1.4,0.4-2s0.7-1.1,1.2-1.5s1.1-0.7,1.7-0.9c0.7-0.2,1.3-0.3,2-0.3c0.6,0,1.2,0.1,1.8,0.3c0.6,0.2,1.1,0.5,1.5,0.9
	s0.8,0.9,1.1,1.4c0.3,0.6,0.4,1.2,0.4,1.8c0,0.8-0.1,1.4-0.4,2c-0.3,0.6-0.6,1.1-1.1,1.5s-1,0.8-1.5,1.2c-0.6,0.3-1.1,0.7-1.7,1
	L201.9,22.9z M195.1,18.5c-0.5,0.3-1,0.6-1.4,0.9c-0.5,0.3-0.9,0.7-1.3,1.1s-0.7,0.8-0.9,1.3s-0.4,1-0.4,1.7s0.1,1.3,0.4,1.8
	s0.6,1,1,1.4s0.9,0.7,1.5,0.9s1.2,0.3,1.9,0.3c0.6,0,1.1-0.1,1.6-0.3c0.5-0.2,0.9-0.4,1.4-0.7c0.4-0.3,0.8-0.6,1.2-1s0.7-0.8,1-1.2
	L195.1,18.5z M196.5,9.1c-0.9,0-1.7,0.3-2.3,0.8s-0.9,1.3-0.9,2.2c0,0.4,0.1,0.7,0.2,1.1c0.2,0.4,0.3,0.8,0.6,1.1
	c0.2,0.4,0.5,0.7,0.8,1s0.5,0.6,0.7,0.9c0.4-0.2,0.9-0.5,1.3-0.7c0.5-0.3,0.9-0.6,1.3-0.9c0.4-0.3,0.7-0.7,0.9-1.2s0.4-0.9,0.4-1.5
	c0-0.8-0.3-1.5-0.8-2.1C198.1,9.4,197.4,9.1,196.5,9.1z"/>
<path class="st0" d="M228.9,26.7L228.9,26.7c-0.3,0.5-0.7,0.9-1.1,1.2c-0.4,0.4-0.9,0.6-1.4,0.9c-0.5,0.2-1,0.4-1.5,0.5
	s-1.1,0.2-1.6,0.2c-1.1,0-2-0.2-2.9-0.5c-0.9-0.4-1.7-0.9-2.3-1.5c-0.6-0.7-1.1-1.4-1.5-2.3s-0.5-1.9-0.5-2.9c0-1.1,0.2-2,0.5-2.9
	c0.4-0.9,0.9-1.7,1.5-2.3c0.6-0.6,1.4-1.2,2.3-1.5c0.9-0.4,1.9-0.5,2.9-0.5c0.5,0,1,0.1,1.6,0.2c0.5,0.1,1.1,0.3,1.5,0.5
	s0.9,0.5,1.4,0.9c0.4,0.4,0.8,0.8,1.1,1.2h0.1V6.4h1.8v22.7H229v-2.4H228.9z M229.1,22.2c0-0.8-0.2-1.5-0.5-2.2s-0.7-1.3-1.2-1.8
	s-1.1-0.9-1.8-1.2c-0.7-0.3-1.5-0.5-2.3-0.5s-1.6,0.1-2.3,0.5c-0.7,0.3-1.3,0.7-1.7,1.2s-0.8,1.1-1.1,1.8c-0.2,0.7-0.4,1.4-0.4,2.2
	c0,0.8,0.1,1.5,0.4,2.2s0.6,1.3,1.1,1.8s1.1,0.9,1.7,1.2c0.7,0.3,1.4,0.5,2.3,0.5c0.8,0,1.6-0.1,2.3-0.5c0.7-0.3,1.3-0.7,1.8-1.2
	s0.9-1.1,1.2-1.8C229,23.7,229.1,23,229.1,22.2z"/>
<path class="st0" d="M247.4,26.5c-0.7,1.1-1.6,1.8-2.6,2.3s-2.2,0.7-3.4,0.7c-1.1,0-2-0.2-2.9-0.5c-0.9-0.4-1.6-0.9-2.2-1.5
	s-1.1-1.4-1.4-2.3c-0.3-0.9-0.5-1.9-0.5-3c0-1,0.2-2,0.5-2.9s0.8-1.6,1.4-2.3c0.6-0.6,1.4-1.2,2.2-1.5c0.8-0.4,1.8-0.6,2.8-0.6
	c1.1,0,2,0.2,2.8,0.6c0.8,0.4,1.5,0.9,2,1.5s1,1.3,1.2,2.1s0.4,1.6,0.4,2.4v1.3h-11.6c0,0.4,0.1,0.9,0.2,1.5
	c0.1,0.6,0.4,1.2,0.8,1.7c0.4,0.6,0.9,1,1.6,1.4c0.7,0.4,1.5,0.6,2.6,0.6c0.9,0,1.8-0.2,2.7-0.7c0.9-0.4,1.5-1,2-1.8L247.4,26.5z
	 M246,21c0-0.6-0.1-1.2-0.4-1.7c-0.3-0.5-0.6-1-1-1.4s-0.9-0.7-1.5-1c-0.6-0.2-1.2-0.4-1.9-0.4c-1,0-1.8,0.2-2.4,0.6
	c-0.7,0.4-1.2,0.9-1.5,1.4c-0.4,0.5-0.7,1-0.8,1.5s-0.2,0.8-0.2,1H246z"/>
<path class="st0" d="M249.9,15.3h2l4.6,11.9l4.5-11.9h1.8l-5.5,13.9h-1.9L249.9,15.3z"/>
<path class="st0" d="M278,26.5c-0.7,1.1-1.6,1.8-2.6,2.3s-2.2,0.7-3.4,0.7c-1.1,0-2-0.2-2.9-0.5c-0.9-0.4-1.6-0.9-2.2-1.5
	s-1.1-1.4-1.4-2.3s-0.5-1.9-0.5-3c0-1,0.2-2,0.5-2.9s0.8-1.6,1.4-2.3c0.6-0.6,1.4-1.2,2.2-1.5c0.8-0.4,1.8-0.6,2.8-0.6
	c1.1,0,2,0.2,2.8,0.6c0.8,0.4,1.5,0.9,2,1.5s1,1.3,1.2,2.1s0.4,1.6,0.4,2.4v1.3h-11.6c0,0.4,0.1,0.9,0.2,1.5s0.4,1.2,0.8,1.7
	c0.4,0.6,0.9,1,1.6,1.4s1.5,0.6,2.6,0.6c0.9,0,1.8-0.2,2.7-0.7c0.9-0.4,1.5-1,2-1.8L278,26.5z M276.6,21c0-0.6-0.1-1.2-0.4-1.7
	s-0.6-1-1-1.4s-0.9-0.7-1.5-1c-0.6-0.2-1.2-0.4-1.9-0.4c-1,0-1.8,0.2-2.4,0.6c-0.7,0.4-1.2,0.9-1.5,1.4c-0.4,0.5-0.7,1-0.8,1.5
	s-0.2,0.8-0.2,1H276.6z"/>
<path class="st0" d="M282.7,6.4h1.8v22.7h-1.8V6.4z"/>
<path class="st0" d="M288.8,22.2c0-1.1,0.2-2,0.5-2.9c0.4-0.9,0.9-1.7,1.5-2.3c0.6-0.6,1.4-1.2,2.3-1.5C294,15.1,295,15,296,15
	c1.1,0,2,0.2,2.9,0.5c0.9,0.4,1.7,0.9,2.3,1.5c0.7,0.7,1.2,1.4,1.5,2.3c0.4,0.9,0.5,1.9,0.5,2.9c0,1.1-0.2,2-0.5,2.9
	c-0.4,0.9-0.9,1.7-1.5,2.3s-1.4,1.2-2.3,1.5c-0.9,0.4-1.9,0.5-2.9,0.5c-1.1,0-2-0.2-2.9-0.5c-0.9-0.4-1.7-0.9-2.3-1.5
	c-0.6-0.7-1.1-1.4-1.5-2.3C289,24.2,288.8,23.2,288.8,22.2z M290.6,22.2c0,0.8,0.1,1.5,0.4,2.2s0.6,1.3,1.1,1.8s1.1,0.9,1.7,1.2
	c0.7,0.3,1.4,0.5,2.3,0.5c0.8,0,1.6-0.1,2.3-0.5c0.7-0.3,1.3-0.7,1.7-1.2c0.5-0.5,0.8-1.1,1.1-1.8s0.4-1.4,0.4-2.2
	c0-0.8-0.1-1.5-0.4-2.2c-0.2-0.7-0.6-1.3-1.1-1.8s-1.1-0.9-1.7-1.2c-0.7-0.3-1.4-0.5-2.3-0.5c-0.8,0-1.6,0.1-2.3,0.5
	c-0.7,0.3-1.3,0.7-1.7,1.2s-0.8,1.1-1.1,1.8C290.8,20.7,290.6,21.4,290.6,22.2z"/>
<path class="st0" d="M307.1,15.3h1.8v2.4h0.1c0.3-0.5,0.6-0.9,1.1-1.2c0.4-0.3,0.9-0.6,1.4-0.9s1-0.4,1.5-0.5s1.1-0.2,1.6-0.2
	c1.1,0,2,0.2,2.9,0.5c0.9,0.4,1.7,0.9,2.3,1.5c0.6,0.7,1.2,1.4,1.5,2.3c0.4,0.9,0.5,1.9,0.5,2.9c0,1.1-0.2,2-0.5,2.9
	c-0.4,0.9-0.9,1.7-1.5,2.3c-0.7,0.7-1.4,1.2-2.3,1.5c-0.9,0.4-1.9,0.5-2.9,0.5c-0.5,0-1-0.1-1.6-0.2c-0.5-0.1-1.1-0.3-1.5-0.5
	c-0.5-0.2-0.9-0.5-1.4-0.9c-0.4-0.3-0.8-0.8-1.1-1.2h-0.1V36h-1.8V15.3z M308.7,22.2c0,0.8,0.2,1.5,0.5,2.2s0.7,1.3,1.2,1.8
	s1.1,0.9,1.8,1.2c0.7,0.3,1.5,0.5,2.3,0.5s1.6-0.1,2.3-0.5c0.7-0.3,1.3-0.7,1.7-1.2c0.5-0.5,0.8-1.1,1.1-1.8
	c0.2-0.7,0.4-1.4,0.4-2.2c0-0.8-0.1-1.5-0.4-2.2s-0.6-1.3-1.1-1.8s-1.1-0.9-1.7-1.2c-0.7-0.3-1.4-0.5-2.3-0.5
	c-0.8,0-1.6,0.1-2.3,0.5c-0.7,0.3-1.3,0.7-1.8,1.2s-0.9,1.1-1.2,1.8C308.8,20.7,308.7,21.4,308.7,22.2z"/>
<path class="st0" d="M338,26.5c-0.7,1.1-1.6,1.8-2.6,2.3s-2.2,0.7-3.4,0.7c-1.1,0-2-0.2-2.9-0.5c-0.9-0.4-1.6-0.9-2.2-1.5
	s-1.1-1.4-1.4-2.3s-0.5-1.9-0.5-3c0-1,0.2-2,0.5-2.9s0.8-1.6,1.4-2.3c0.6-0.6,1.4-1.2,2.2-1.5c0.8-0.4,1.8-0.6,2.8-0.6
	c1.1,0,2,0.2,2.8,0.6c0.8,0.4,1.5,0.9,2,1.5s1,1.3,1.2,2.1s0.4,1.6,0.4,2.4v1.3h-11.6c0,0.4,0.1,0.9,0.2,1.5s0.4,1.2,0.8,1.7
	c0.4,0.6,0.9,1,1.6,1.4s1.5,0.6,2.6,0.6c0.9,0,1.8-0.2,2.7-0.7c0.9-0.4,1.5-1,2-1.8L338,26.5z M336.6,21c0-0.6-0.1-1.2-0.4-1.7
	s-0.6-1-1-1.4s-0.9-0.7-1.5-1c-0.6-0.2-1.2-0.4-1.9-0.4c-1,0-1.8,0.2-2.4,0.6c-0.7,0.4-1.2,0.9-1.5,1.4c-0.4,0.5-0.7,1-0.8,1.5
	s-0.2,0.8-0.2,1H336.6z"/>
<path class="st0" d="M342.5,19.2c0-0.3,0-0.6,0-0.9c0-0.4,0-0.7,0-1.1s0-0.7,0-1.1c0-0.3,0-0.6,0-0.8h1.8c0,0.5,0,1,0,1.5
	s0,0.8,0.1,0.9c0.5-0.8,1.1-1.5,1.8-2c0.7-0.5,1.6-0.8,2.6-0.8c0.2,0,0.4,0,0.5,0c0.2,0,0.3,0.1,0.5,0.1l-0.2,1.8
	c-0.2-0.1-0.5-0.1-0.7-0.1c-0.8,0-1.5,0.1-2,0.4c-0.6,0.3-1,0.6-1.4,1s-0.6,1-0.8,1.5c-0.2,0.6-0.3,1.2-0.3,1.9v7.6h-1.8v-9.9H342.5
	z"/>
</svg>
