<?xml version="1.0" encoding="utf-8"?>
<!-- Generator: Adobe Illustrator 24.3.0, SVG Export Plug-In . SVG Version: 6.00 Build 0)  -->
<svg version="1.1" id="Layer_1" xmlns="http://www.w3.org/2000/svg" xmlns:xlink="http://www.w3.org/1999/xlink" x="0px" y="0px"
	 viewBox="0 0 424 160" style="enable-background:new 0 0 424 160;" xml:space="preserve">
<style type="text/css">
	.st0{fill:#FFFFFF;}
	.st1{fill:#EA0769;}
</style>
<g>
	<g>
		<g>
			<path class="st0" d="M72.2,56.5c0,7.1-1.2,13.2-3.5,18.3c-2.3,5.1-5.5,9.3-9.6,12.7c-4.1,3.3-8.8,5.8-14.3,7.4
				c-5.5,1.6-11.4,2.4-17.7,2.4H3.9V15.7h23.2c6.3,0,12.2,0.8,17.7,2.4c5.5,1.6,10.3,4,14.3,7.4c4.1,3.3,7.3,7.6,9.6,12.8
				C71,43.3,72.2,49.5,72.2,56.5z M6.5,18v77.1h20c6,0,11.7-0.8,16.9-2.2s9.8-3.8,13.7-6.9C61,82.8,64,78.8,66.2,74
				c2.2-4.8,3.3-10.7,3.3-17.4c0-6.8-1.1-12.6-3.3-17.5c-2.2-4.9-5.3-8.9-9.1-12c-3.9-3.1-8.4-5.4-13.7-6.9
				C38.1,18.7,32.5,18,26.5,18C26.5,18,6.5,18,6.5,18z"/>
		</g>
		<g>
			<path class="st0" d="M208.2,97.4V15.7h2.5v79.4h40.6v2.3H208.2z"/>
		</g>
		<g>
			<path class="st0" d="M330.1,97.4L320.4,74H273l-10.1,23.4h-2.8l35.4-81.7h3.2l34,81.7H330.1z M297.1,17.3l-23.2,54.5h45.7
				L297.1,17.3z"/>
		</g>
		<g>
			<path class="st0" d="M415.6,97.4L357,18.9h-0.3v78.5h-2.5V15.7h3.6l58.7,78.4h0.4V15.7h2.5v81.7H415.6z"/>
		</g>
	</g>
</g>
<ellipse class="st1" cx="138.8" cy="57" rx="54" ry="52.5"/>
<path class="st0" d="M100.2,41.8h3.5v15.9l15.9-15.9h4.6L107,58.5l18.6,18.7h-4.8l-17.1-17.7v17.7h-3.5L100.2,41.8L100.2,41.8z"/>
<path class="st0" d="M130.2,41.8h3.5v35.3h-3.5V41.8z"/>
<path class="st0" d="M141.9,41.8h5.4l12.9,31.1l13-31.1h5.2v35.3h-3.7V45.3h-0.1l-12.9,31.9h-3l-13.3-31.9h-0.1v31.9h-3.5
	L141.9,41.8L141.9,41.8z"/>
</svg>
