<?xml version="1.0" encoding="utf-8"?>
<!-- Generator: Adobe Illustrator 25.0.1, SVG Export Plug-In . SVG Version: 6.00 Build 0)  -->
<svg version="1.1" id="Layer_1" xmlns="http://www.w3.org/2000/svg" xmlns:xlink="http://www.w3.org/1999/xlink" x="0px" y="0px"
	 viewBox="0 0 134.1 50.9" style="enable-background:new 0 0 134.1 50.9;" xml:space="preserve">
<style type="text/css">
	.st0{fill:#727272;}
	.st1{fill:#EA0769;}
	.st2{fill:#FFFFFF;}
	.st3{enable-background:new    ;}
</style>
<g>
	<g>
		<path class="st0" d="M24.6,19.2c0,2.1-0.4,4-1,5.6c-0.7,1.5-1.7,2.8-2.9,3.9S18,30.5,16.3,31s-3.5,0.7-5.4,0.7h-7V6.8h7
			c1.9,0,3.7,0.2,5.4,0.7s3.1,1.2,4.4,2.2c1.2,1,2.2,2.3,2.9,3.9S24.6,17.1,24.6,19.2z M4.7,7.5V31h6.1c1.8,0,3.5-0.2,5.1-0.7
			s3-1.2,4.2-2.1c1.2-1,2.1-2.2,2.8-3.6s1-3.2,1-5.3s-0.3-3.8-1-5.3s-1.6-2.7-2.8-3.6c-1.2-0.9-2.6-1.6-4.2-2.1
			c-1.6-0.4-3.3-0.7-5.1-0.7L4.7,7.5z"/>
		<path class="st0" d="M66,31.7V6.8h0.8v24.1h12.3v0.7L66,31.7L66,31.7z"/>
		<path class="st0" d="M103,31.7l-2.9-7.1H85.7l-3.1,7.1h-0.8L92.5,6.8h1l10.3,24.8L103,31.7L103,31.7z M93,7.3l-7.1,16.6h13.9
			L93,7.3z"/>
		<path class="st0" d="M129,31.7L111.2,7.8h-0.1v23.9h-0.8V6.8h1.1l17.9,23.8h0.1V6.8h0.8v24.8L129,31.7L129,31.7z"/>
	</g>
</g>
<ellipse class="st1" cx="44.9" cy="19.4" rx="16.4" ry="16"/>
<path class="st2" d="M33.1,14.8h1.1v4.8l4.8-4.8h1.4l-5.2,5.1l5.7,5.7h-1.5l-5.2-5.4v5.4h-1.1V14.8L33.1,14.8z"/>
<path class="st2" d="M42.3,14.8h1.1v10.7h-1.1V14.8z"/>
<path class="st2" d="M45.8,14.8h1.7l3.9,9.5l3.9-9.4h1.6v10.7h-1.1v-9.7l0,0l-3.9,9.7H51l-4-9.7l0,0v9.7h-1.1L45.8,14.8L45.8,14.8z"
	/>
<g class="st3">
	<path class="st1" d="M3.5,42.7L3.5,42.7c0-1.6,1.2-2.5,2.3-2.5c1,0,1.6,0.5,2,1.1v-3.1h0.5v6.8H7.7V44c-0.4,0.6-1,1.2-2,1.2
		C4.6,45.2,3.5,44.3,3.5,42.7z M7.8,42.7L7.8,42.7c0-1.2-1-2.1-1.9-2.1c-1,0-1.9,0.8-1.9,2v0c0,1.2,0.9,2.1,1.9,2.1
		C6.8,44.8,7.8,43.9,7.8,42.7z"/>
	<path class="st1" d="M9.9,38.5h0.6v0.6H9.9V38.5z M10,40.3h0.5v4.8H10V40.3z"/>
	<path class="st1" d="M12.2,45.9l0.3-0.4c0.6,0.4,1.2,0.7,1.9,0.7c1.1,0,1.9-0.6,1.9-1.8v-0.7c-0.4,0.6-1,1.1-2,1.1
		c-1.1,0-2.3-0.9-2.3-2.2v0c0-1.4,1.1-2.3,2.3-2.3c1,0,1.6,0.5,2,1.1v-1h0.5v4c0,0.7-0.2,1.2-0.6,1.6c-0.4,0.4-1,0.6-1.7,0.6
		C13.5,46.6,12.8,46.4,12.2,45.9z M16.2,42.5L16.2,42.5c0-1.1-1-1.8-2-1.8c-1,0-1.8,0.7-1.8,1.8v0c0,1.1,0.9,1.8,1.8,1.8
		C15.3,44.3,16.2,43.6,16.2,42.5z"/>
	<path class="st1" d="M18.4,38.5H19v0.6h-0.6V38.5z M18.5,40.3h0.5v4.8h-0.5V40.3z"/>
	<path class="st1" d="M21,43.9v-3.1h-0.7v-0.4H21v-1.5h0.5v1.5h1.7v0.4h-1.7v3.1c0,0.7,0.4,0.9,1,0.9c0.2,0,0.4,0,0.7-0.2V45
		c-0.2,0.1-0.5,0.2-0.8,0.2C21.6,45.2,21,44.8,21,43.9z"/>
	<path class="st1" d="M24.1,43.7L24.1,43.7c0-1,0.8-1.6,2.1-1.6c0.7,0,1.1,0.1,1.6,0.2v-0.2c0-1-0.6-1.5-1.6-1.5
		c-0.6,0-1.1,0.2-1.5,0.4l-0.2-0.4c0.5-0.2,1-0.4,1.7-0.4c0.6,0,1.2,0.2,1.5,0.5c0.3,0.3,0.5,0.8,0.5,1.3v3h-0.4v-0.8
		c-0.3,0.5-0.9,0.9-1.8,0.9C25,45.2,24.1,44.7,24.1,43.7z M27.7,43.3v-0.5c-0.4-0.1-0.9-0.2-1.6-0.2c-1,0-1.6,0.4-1.6,1.1v0
		c0,0.7,0.7,1.1,1.4,1.1C26.9,44.8,27.7,44.2,27.7,43.3z"/>
	<path class="st1" d="M29.9,38.3h0.5v6.8h-0.5V38.3z"/>
	<path class="st1" d="M34.6,42.7L34.6,42.7c0-1.6,1.2-2.5,2.3-2.5c1,0,1.6,0.5,2,1.1v-3.1h0.5v6.8h-0.5V44c-0.4,0.6-1,1.2-2,1.2
		C35.8,45.2,34.6,44.3,34.6,42.7z M38.9,42.7L38.9,42.7c0-1.2-1-2.1-1.9-2.1c-1,0-1.9,0.8-1.9,2v0c0,1.2,0.9,2.1,1.9,2.1
		C38,44.8,38.9,43.9,38.9,42.7z"/>
	<path class="st1" d="M40.8,42.7L40.8,42.7c0-1.4,1-2.5,2.3-2.5c1.3,0,2.2,1.1,2.2,2.5c0,0.1,0,0.1,0,0.2h-3.9
		c0.1,1.2,0.9,1.9,1.9,1.9c0.7,0,1.2-0.3,1.6-0.7l0.3,0.3c-0.5,0.5-1.1,0.9-2,0.9C41.8,45.2,40.8,44.2,40.8,42.7z M44.7,42.5
		c-0.1-1-0.6-1.8-1.7-1.8c-0.9,0-1.7,0.8-1.8,1.8H44.7z"/>
	<path class="st1" d="M46.1,44.5l0.3-0.4c0.5,0.4,1.1,0.6,1.7,0.6c0.6,0,1.1-0.4,1.1-0.9v0c0-0.6-0.6-0.8-1.3-1
		c-0.8-0.2-1.6-0.5-1.6-1.3v0c0-0.8,0.6-1.3,1.6-1.3c0.6,0,1.2,0.2,1.7,0.5l-0.2,0.4c-0.4-0.3-1-0.5-1.5-0.5c-0.7,0-1.1,0.4-1.1,0.8
		v0c0,0.5,0.6,0.7,1.3,0.9c0.8,0.2,1.6,0.5,1.6,1.3v0c0,0.8-0.7,1.4-1.6,1.4C47.4,45.2,46.6,44.9,46.1,44.5z"/>
	<path class="st1" d="M51.2,38.5h0.6v0.6h-0.6V38.5z M51.2,40.3h0.5v4.8h-0.5V40.3z"/>
	<path class="st1" d="M53.4,45.9l0.3-0.4c0.6,0.4,1.2,0.7,1.9,0.7c1.1,0,1.9-0.6,1.9-1.8v-0.7c-0.4,0.6-1,1.1-2,1.1
		c-1.1,0-2.3-0.9-2.3-2.2v0c0-1.4,1.1-2.3,2.3-2.3c1,0,1.6,0.5,2,1.1v-1h0.5v4c0,0.7-0.2,1.2-0.6,1.6c-0.4,0.4-1,0.6-1.7,0.6
		C54.8,46.6,54.1,46.4,53.4,45.9z M57.5,42.5L57.5,42.5c0-1.1-1-1.8-2-1.8c-1,0-1.8,0.7-1.8,1.8v0c0,1.1,0.9,1.8,1.8,1.8
		C56.5,44.3,57.5,43.6,57.5,42.5z"/>
	<path class="st1" d="M59.7,40.3h0.5v0.9c0.3-0.6,0.8-1,1.7-1c1.2,0,1.9,0.8,1.9,2v2.9h-0.5v-2.8c0-1-0.5-1.6-1.5-1.6
		c-0.9,0-1.7,0.7-1.7,1.7v2.8h-0.5V40.3z"/>
	<path class="st1" d="M65,42.7L65,42.7c0-1.4,1-2.5,2.3-2.5c1.3,0,2.2,1.1,2.2,2.5c0,0.1,0,0.1,0,0.2h-3.9c0.1,1.2,0.9,1.9,1.9,1.9
		c0.7,0,1.2-0.3,1.6-0.7l0.3,0.3c-0.5,0.5-1.1,0.9-2,0.9C66.1,45.2,65,44.2,65,42.7z M69,42.5c-0.1-1-0.6-1.8-1.7-1.8
		c-0.9,0-1.7,0.8-1.8,1.8H69z"/>
	<path class="st1" d="M70.8,40.3h0.5v1.4c0.4-0.8,1.2-1.5,2.1-1.4v0.5h0c-1.1,0-2.1,0.8-2.1,2.4v1.9h-0.5V40.3z"/>
	<path class="st1" d="M81.2,44.1c-0.6,0.7-1.3,1.1-2.2,1.1c-1.1,0-2-0.7-2-1.8v0c0-0.9,0.6-1.5,1.7-1.9c-0.5-0.6-0.7-1-0.7-1.5v0
		c0-0.8,0.7-1.5,1.6-1.5c0.8,0,1.5,0.6,1.5,1.4v0c0,0.8-0.6,1.3-1.6,1.7l1.7,1.8c0.3-0.4,0.6-1,0.8-1.6l0.4,0.2
		c-0.3,0.7-0.6,1.3-1,1.7l1.2,1.2l-0.4,0.3L81.2,44.1z M80.8,43.7l-1.9-2c-1,0.4-1.5,1-1.5,1.6v0c0,0.8,0.6,1.4,1.5,1.4
		C79.7,44.8,80.3,44.4,80.8,43.7z M80.5,39.9L80.5,39.9c0-0.6-0.4-1-1-1c-0.7,0-1.1,0.5-1.1,1.1v0c0,0.4,0.2,0.7,0.8,1.3
		C80.1,41,80.5,40.5,80.5,39.9z"/>
	<path class="st1" d="M86.3,42.7L86.3,42.7c0-1.6,1.2-2.5,2.3-2.5c1,0,1.6,0.5,2,1.1v-3.1h0.5v6.8h-0.5V44c-0.4,0.6-1,1.2-2,1.2
		C87.5,45.2,86.3,44.3,86.3,42.7z M90.6,42.7L90.6,42.7c0-1.2-1-2.1-1.9-2.1c-1,0-1.9,0.8-1.9,2v0c0,1.2,0.9,2.1,1.9,2.1
		C89.7,44.8,90.6,43.9,90.6,42.7z"/>
	<path class="st1" d="M92.5,42.7L92.5,42.7c0-1.4,1-2.5,2.3-2.5c1.3,0,2.2,1.1,2.2,2.5c0,0.1,0,0.1,0,0.2H93
		c0.1,1.2,0.9,1.9,1.9,1.9c0.7,0,1.2-0.3,1.6-0.7l0.3,0.3c-0.5,0.5-1.1,0.9-2,0.9C93.6,45.2,92.5,44.2,92.5,42.7z M96.4,42.5
		c-0.1-1-0.6-1.8-1.7-1.8c-0.9,0-1.7,0.8-1.8,1.8H96.4z"/>
	<path class="st1" d="M97.5,40.3h0.5l1.8,4.2l1.8-4.2h0.5l-2.1,4.8h-0.4L97.5,40.3z"/>
	<path class="st1" d="M102.8,42.7L102.8,42.7c0-1.4,1-2.5,2.3-2.5c1.3,0,2.2,1.1,2.2,2.5c0,0.1,0,0.1,0,0.2h-3.9
		c0.1,1.2,0.9,1.9,1.9,1.9c0.7,0,1.2-0.3,1.6-0.7l0.3,0.3c-0.5,0.5-1.1,0.9-2,0.9C103.9,45.2,102.8,44.2,102.8,42.7z M106.8,42.5
		c-0.1-1-0.6-1.8-1.7-1.8c-0.9,0-1.7,0.8-1.8,1.8H106.8z"/>
	<path class="st1" d="M108.7,38.3h0.5v6.8h-0.5V38.3z"/>
	<path class="st1" d="M110.6,42.7L110.6,42.7c0-1.4,1-2.5,2.5-2.5c1.4,0,2.4,1.1,2.4,2.5v0c0,1.3-1,2.5-2.5,2.5
		C111.6,45.2,110.6,44.1,110.6,42.7z M115,42.7L115,42.7c0-1.2-0.9-2.1-2-2.1c-1.1,0-1.9,0.9-1.9,2v0c0,1.1,0.9,2.1,2,2.1
		C114.2,44.8,115,43.8,115,42.7z"/>
	<path class="st1" d="M116.9,40.3h0.5v1.1c0.4-0.6,1-1.2,2-1.2c1.1,0,2.3,0.9,2.3,2.5v0c0,1.5-1.2,2.5-2.3,2.5c-1,0-1.6-0.5-2-1.1
		v2.5h-0.5V40.3z M121.1,42.7L121.1,42.7c0-1.3-0.9-2.1-1.9-2.1c-1,0-1.9,0.8-1.9,2v0c0,1.2,1,2,1.9,2
		C120.3,44.8,121.1,44,121.1,42.7z"/>
	<path class="st1" d="M122.7,42.7L122.7,42.7c0-1.4,1-2.5,2.3-2.5c1.3,0,2.2,1.1,2.2,2.5c0,0.1,0,0.1,0,0.2h-3.9
		c0.1,1.2,0.9,1.9,1.9,1.9c0.7,0,1.2-0.3,1.6-0.7l0.3,0.3c-0.5,0.5-1.1,0.9-2,0.9C123.8,45.2,122.7,44.2,122.7,42.7z M126.7,42.5
		c-0.1-1-0.6-1.8-1.7-1.8c-0.9,0-1.7,0.8-1.8,1.8H126.7z"/>
	<path class="st1" d="M128.5,40.3h0.5v1.4c0.4-0.8,1.2-1.5,2.1-1.4v0.5h0c-1.1,0-2.1,0.8-2.1,2.4v1.9h-0.5V40.3z"/>
</g>
</svg>
